<?xml version="1.0" encoding="utf-8"?>
<!-- Generator: Adobe Illustrator 16.0.0, SVG Export Plug-In . SVG Version: 6.00 Build 0)  -->
<!DOCTYPE svg PUBLIC "-//W3C//DTD SVG 1.1//EN" "http://www.w3.org/Graphics/SVG/1.1/DTD/svg11.dtd">
<svg version="1.1" id="Layer_1" xmlns="http://www.w3.org/2000/svg" xmlns:xlink="http://www.w3.org/1999/xlink" x="0px" y="0px"
	 width="460px" height="108px" viewBox="0 0 460 108" enable-background="new 0 0 460 108" xml:space="preserve">
<g>
	<g>
	</g>
	<g>
	</g>
	<g>
	</g>
	<g>
		<path fill="#00ADEE" d="M105.631,76.537H93.245V56.749c0-0.406-0.311-0.725-0.719-0.725c-0.373,0-0.718,0.318-0.718,0.725v20.509
			c0,0.404,0.346,0.717,0.718,0.717h13.105c0.409,0,0.718-0.312,0.718-0.717C106.349,76.848,106.04,76.537,105.631,76.537z"/>
		<path fill="#00ADEE" d="M123.593,76.537H111.21v-9.6h10.194c0.406,0,0.722-0.31,0.722-0.714c0-0.41-0.316-0.725-0.722-0.725
			H111.21V57.47h8.181c0.413,0,0.728-0.312,0.728-0.721c0-0.406-0.314-0.725-0.728-0.725h-8.905c-0.371,0-0.721,0.318-0.721,0.725
			v20.509c0,0.404,0.35,0.717,0.721,0.717h13.106c0.412,0,0.724-0.312,0.724-0.717C124.316,76.848,124.004,76.537,123.593,76.537z"
			/>
		<path fill="#00ADEE" d="M139.18,56.343c-0.133-0.225-0.315-0.408-0.665-0.408c-0.349,0-0.533,0.184-0.651,0.408l-10.915,20.568
			c-0.188,0.347-0.037,0.78,0.315,0.971c0.347,0.187,0.782,0.065,0.973-0.314l4.351-8.216h11.857l4.356,8.216
			c0.19,0.38,0.627,0.501,0.973,0.314c0.346-0.19,0.499-0.624,0.316-0.971L139.18,56.343z M133.341,67.912l5.174-9.72l5.148,9.72
			H133.341z"/>
		<path fill="#00ADEE" d="M173.881,76.537h-1.005c-2.04,0-2.852-1.351-3.316-4.049c-0.699-3.857-1.7-5.674-4.301-6.361
			c1.845-0.722,3.04-2.45,3.04-4.644c0-3.044-2.415-5.459-5.391-5.459h-7.996c-0.379,0-0.718,0.318-0.718,0.725v20.509
			c0,0.404,0.339,0.717,0.718,0.717c0.407,0,0.724-0.312,0.724-0.717v-10.32h6.738c3.856,0,4.73,1.599,5.733,6.182
			c0.853,3.853,2.551,4.855,4.86,4.855h0.914c0.406,0,0.718-0.312,0.718-0.717C174.6,76.848,174.287,76.537,173.881,76.537z
			 M155.636,65.499V57.47h7.241c2.163,0,3.982,1.82,3.982,4.014s-1.695,4.016-3.982,4.016H155.636z"/>
		<path fill="#00ADEE" d="M196.074,56.024c-0.372,0-0.717,0.318-0.717,0.725v11.35l-16.272-11.787
			c-0.162-0.127-0.382-0.287-0.597-0.287c-0.378,0-0.696,0.318-0.696,0.725v20.509c0,0.404,0.348,0.717,0.727,0.717
			c0.405,0,0.72-0.312,0.72-0.717V58.192l16.12,11.627v7.438c0,0.404,0.346,0.717,0.717,0.717c0.412,0,0.724-0.312,0.724-0.717
			V56.749C196.797,56.343,196.485,56.024,196.074,56.024z"/>
		<path fill="#00ADEE" d="M203.13,56.024c-0.38,0-0.729,0.318-0.729,0.725v20.509c0,0.404,0.348,0.717,0.729,0.717
			c0.406,0,0.712-0.312,0.712-0.717V56.749C203.843,56.343,203.537,56.024,203.13,56.024z"/>
		<path fill="#00ADEE" d="M228.211,56.024c-0.372,0-0.72,0.318-0.72,0.725v11.35l-16.275-11.787
			c-0.159-0.127-0.378-0.287-0.596-0.287c-0.379,0-0.687,0.318-0.687,0.725v20.509c0,0.404,0.341,0.717,0.711,0.717
			c0.413,0,0.732-0.312,0.732-0.717V58.192l16.114,11.627v7.438c0,0.404,0.348,0.717,0.72,0.717c0.406,0,0.724-0.312,0.724-0.717
			V56.749C228.935,56.343,228.617,56.024,228.211,56.024z"/>
		<path fill="#00ADEE" d="M253.009,67.721h-5.764c-0.383,0-0.7,0.314-0.7,0.722c0,0.381,0.317,0.725,0.7,0.725h5.042v4.168
			c-1.819,2.224-4.642,3.665-7.745,3.665c-5.52,0-9.942-4.478-9.942-10.003c0-5.514,4.446-9.998,9.973-9.998
			c2.379,0,4.64,0.873,6.302,2.259c0.282,0.215,0.779,0.191,1.01-0.128c0.303-0.407,0.148-0.784-0.165-1.067
			c-1.851-1.595-4.425-2.505-7.147-2.505c-6.305,0-11.419,5.143-11.419,11.439c0,6.307,5.081,11.455,11.388,11.455
			c3.035,0,5.709-1.23,7.745-3.169v1.938c0,0.409,0.311,0.726,0.722,0.726c0.375,0,0.723-0.316,0.723-0.726v-8.779
			C253.731,68.035,253.384,67.721,253.009,67.721z"/>
		<path fill="#00ADEE" d="M279.308,56.343c-0.13-0.225-0.316-0.408-0.656-0.408c-0.35,0-0.536,0.184-0.662,0.408l-10.912,20.568
			c-0.187,0.347-0.025,0.78,0.32,0.971c0.344,0.187,0.783,0.065,0.969-0.314l4.358-8.216h11.854l4.358,8.216
			c0.183,0.38,0.623,0.501,0.975,0.314c0.343-0.19,0.499-0.624,0.309-0.971L279.308,56.343z M273.476,67.912l5.176-9.72l5.147,9.72
			H273.476z"/>
		<path fill="#00ADEE" d="M302.319,56.999c2.381,0,4.642,0.873,6.295,2.259c0.297,0.215,0.795,0.191,1.009-0.128
			c0.318-0.407,0.161-0.784-0.152-1.067c-1.852-1.595-4.426-2.505-7.151-2.505c-6.303,0-11.417,5.143-11.417,11.439
			c0,6.307,5.114,11.455,11.417,11.455c2.694,0,5.3-0.943,7.151-2.547c0.28-0.25,0.409-0.661,0.127-1.03
			c-0.286-0.35-0.723-0.312-0.983-0.097c-1.616,1.375-3.882,2.222-6.295,2.222c-5.521,0-9.969-4.478-9.969-10.003
			C292.351,61.483,296.798,56.999,302.319,56.999z"/>
		<path fill="#00ADEE" d="M325.233,56.343c-0.118-0.225-0.312-0.408-0.656-0.408c-0.346,0-0.525,0.184-0.657,0.408l-10.911,20.568
			c-0.187,0.347-0.029,0.78,0.313,0.971c0.34,0.187,0.78,0.065,0.977-0.314l4.349-8.216h11.855l4.361,8.216
			c0.19,0.38,0.62,0.501,0.968,0.314c0.344-0.19,0.507-0.624,0.314-0.971L325.233,56.343z M319.397,67.912l5.18-9.72l5.143,9.72
			H319.397z"/>
		<path fill="#00ADEE" d="M346.555,56.024h-6.361c-0.379,0-0.727,0.318-0.727,0.725v20.509c0,0.404,0.348,0.717,0.727,0.717h6.361
			c6.08,0,10.975-4.919,10.975-10.978C357.529,60.956,352.635,56.024,346.555,56.024z M346.681,76.537h-5.776V57.47h5.776
			c5.267,0,9.405,4.261,9.405,9.527C356.086,72.272,351.947,76.537,346.681,76.537z"/>
		<path fill="#00ADEE" d="M375.578,76.537h-12.382v-9.6h10.188c0.412,0,0.73-0.31,0.73-0.714c0-0.41-0.318-0.725-0.73-0.725h-10.188
			V57.47h8.189c0.406,0,0.719-0.312,0.719-0.721c0-0.406-0.312-0.725-0.719-0.725h-8.906c-0.377,0-0.725,0.318-0.725,0.725v20.509
			c0,0.404,0.348,0.717,0.725,0.717h13.099c0.408,0,0.727-0.312,0.727-0.717C376.305,76.848,375.986,76.537,375.578,76.537z"/>
		<path fill="#00ADEE" d="M401.135,56.024c-0.155,0-0.376,0.066-0.53,0.225l-9.844,8.43l-9.854-8.397
			c-0.152-0.128-0.308-0.257-0.532-0.257c-0.377,0-0.722,0.318-0.722,0.725v20.509c0,0.404,0.345,0.717,0.722,0.717
			c0.412,0,0.727-0.312,0.727-0.717V58.32l8.681,7.427c0.63,0.535,1.316,0.535,1.943,0l8.689-7.427v18.938
			c0,0.404,0.345,0.717,0.721,0.717c0.408,0,0.723-0.312,0.723-0.717V56.749C401.857,56.343,401.543,56.024,401.135,56.024z"/>
		<path fill="#00ADEE" d="M424.367,56.343l-8.655,12.135l-8.658-12.135c-0.246-0.318-0.688-0.408-1.006-0.158
			c-0.311,0.217-0.404,0.659-0.187,1.005l9.128,12.762v7.307c0,0.404,0.346,0.717,0.723,0.717c0.408,0,0.715-0.312,0.715-0.717
			v-7.307l9.136-12.762c0.214-0.346,0.116-0.788-0.195-1.005C425.057,55.935,424.616,56.024,424.367,56.343z"/>
		<path fill="#00ADEE" d="M92.311,10.307V36.65c0,2.461,0.275,3.225,1.364,4.371c1.154,1.098,1.92,1.367,4.373,1.367h12.955
			c1.476,0,1.859-0.052,2.57-0.491c1.036-0.656,1.642-1.746,1.642-2.949c0-1.859-1.532-3.39-3.447-3.39h-10.983V10.204
			c0-1.81-0.103-2.463-0.487-3.231c-0.659-1.31-1.976-2.186-3.668-2.512l-1.698-0.272c-0.436-0.054-0.925-0.106-1.306-0.106
			c-1.916,0-3.387,1.526-3.387,3.493c0,1.199,0.433,1.805,1.689,2.513L92.311,10.307z"/>
		<path fill="#00ADEE" d="M122.589,11.946c2.347,0,3.987-1.64,3.987-3.988c0-2.35-1.64-3.992-3.987-3.992
			c-2.296,0-3.991,1.643-3.991,3.938C118.599,10.307,120.236,11.946,122.589,11.946z"/>
		<path fill="#00ADEE" d="M122.538,15.009l-2.136-0.385c-0.382-0.053-0.823-0.106-1.149-0.106c-1.474,0-2.729,1.307-2.729,2.846
			c0,1.033,0.706,2.07,1.64,2.399l0.436,0.113v18.087c0,3.717,1.148,5.191,4.049,5.191c2.892,0,4.045-1.475,4.045-5.191V20.198
			C126.692,17.084,125.427,15.502,122.538,15.009z"/>
		<path fill="#00ADEE" d="M147.725,35.772c-0.544,0-0.931,0.112-1.692,0.384c-0.767,0.276-1.032,0.33-1.531,0.33
			c-0.658,0-1.254-0.273-1.531-0.822c-0.324-0.492-0.381-0.987-0.381-3.655v-9.074h2.132c2.626,0,3.988-1.153,3.988-3.284
			c0-1.914-1.362-3.222-3.283-3.222h-2.836v-3.718c0-1.862-0.054-2.292-0.552-3.117c-0.707-1.199-1.961-1.853-3.493-1.853
			c-1.426,0-2.622,0.543-3.334,1.587c-0.6,0.876-0.708,1.361-0.708,3.383v3.718h-1.2c-2.137,0-3.507,1.308-3.507,3.334
			c0,1.859,1.428,3.172,3.507,3.172h1.2v11.533c0,3.606,0.433,5.193,1.694,6.554c1.31,1.367,3.387,2.133,5.79,2.133
			c2.187,0,4.54-0.654,6.231-1.691c1.536-0.928,2.134-1.802,2.134-3.012C150.351,36.918,149.259,35.772,147.725,35.772z"/>
		<path fill="#00ADEE" d="M155.43,22.935v11.533c0,3.606,0.438,5.193,1.698,6.554c1.312,1.367,3.392,2.133,5.796,2.133
			c2.18,0,4.531-0.654,6.224-1.691c1.53-0.928,2.133-1.802,2.133-3.012c0-1.533-1.099-2.679-2.613-2.679
			c-0.561,0-0.942,0.112-1.709,0.384c-0.756,0.276-1.032,0.33-1.522,0.33c-0.659,0-1.255-0.273-1.528-0.822
			c-0.334-0.492-0.392-0.987-0.392-3.655v-9.074h2.137c2.619,0,3.99-1.153,3.99-3.284c0-1.914-1.371-3.222-3.279-3.222h-2.848
			v-3.718c0-1.862-0.049-2.292-0.548-3.117c-0.711-1.199-1.961-1.853-3.493-1.853c-1.417,0-2.622,0.543-3.329,1.587
			c-0.6,0.876-0.716,1.361-0.716,3.383v3.718h-1.201c-2.132,0-3.501,1.308-3.501,3.334c0,1.859,1.42,3.172,3.501,3.172H155.43z"/>
		<path fill="#00ADEE" d="M182.264,37.963V10.037c0-3.499-1.149-4.976-4.316-5.525l-1.973-0.323
			c-0.321-0.054-0.869-0.106-1.084-0.106c-1.538,0-2.792,1.251-2.792,2.84c0,1.036,0.718,2.074,1.643,2.406l0.438,0.11v28.524
			c0,3.717,1.146,5.191,4.043,5.191C181.115,43.154,182.264,41.68,182.264,37.963z"/>
		<path fill="#00ADEE" d="M207.735,34.905c-0.595,0-1.047,0.112-2.026,0.544c-2.567,1.092-3.168,1.257-4.861,1.257
			c-3.388,0-5.139-1.587-5.193-4.646v-0.22v-0.386h10.22c2.403,0,3.168-0.212,4.317-1.36c1.041-0.985,1.479-2.302,1.479-4.538
			c0-2.676-0.881-5.413-2.41-7.327c-2.021-2.455-5.028-3.712-9.072-3.712c-8.801,0-13.116,5.082-13.116,15.467
			c0,4.043,0.77,6.666,2.621,9.018c2.191,2.734,5.692,4.209,10.111,4.209c3.613,0,7.109-0.979,9.513-2.676
			c0.929-0.66,1.366-1.479,1.366-2.461C210.684,36.327,209.318,34.905,207.735,34.905z M199.967,20.804
			c2.794,0,3.611,1.199,3.56,5.077h-7.873C195.708,22.383,197.075,20.804,199.967,20.804z"/>
		<path fill="#00ADEE" d="M268.395,37.963V10.744c0-3.88-1.093-5.244-4.757-5.852l-4.208-0.648
			c-1.138-0.219-1.138-0.219-1.584-0.219c-2.13,0-3.768,1.583-3.768,3.716c0,1.033,0.491,1.803,1.421,2.237l0.437,0.226
			l-4.32,11.204c-1.363,3.714-1.97,6.115-2.299,9.938c-0.536-3.325-1.196-5.465-2.783-9.506l-4.915-12.678
			c-0.983-2.733-2.078-3.662-4.81-4.047l-5.197-0.871c-0.487-0.109-1.032-0.162-1.368-0.162c-1.907,0-3.438,1.469-3.438,3.384
			c0,1.147,0.547,2.078,1.475,2.571l0.548,0.27v27.656c0,3.661,1.09,5.191,3.71,5.191c2.628,0,3.722-1.53,3.722-5.191V25.881
			c0-4.204-0.107-7.322-0.547-13.281c0.49,1.425,0.823,2.409,0.984,2.792c0.708,1.913,1.421,3.828,2.076,5.679l7.433,20.061
			c0.542,1.535,1.152,2.023,2.409,2.023c1.255,0,1.854-0.488,2.405-2.023l7.272-19.841c1.959-5.298,1.959-5.354,3.218-9.282
			c-0.438,5.355-0.55,7.482-0.55,12.072v13.883c0,3.717,1.099,5.191,3.718,5.191C267.302,43.154,268.395,41.624,268.395,37.963z"/>
		<path fill="#00ADEE" d="M286.973,43.154c8.196,0,13.281-5.521,13.281-14.317c0-8.854-5.085-14.319-13.281-14.319
			c-4.424,0-7.815,1.475-10.217,4.427c-1.969,2.405-3.117,5.955-3.117,9.726C273.639,37.686,278.661,43.154,286.973,43.154z
			 M286.973,21.235c3.062,0,4.537,2.464,4.537,7.602c0,5.133-1.475,7.596-4.537,7.596c-3.11,0-4.589-2.463-4.589-7.65
			C282.384,23.699,283.862,21.235,286.973,21.235z"/>
		<path fill="#00ADEE" d="M320.804,37.196c0.058,2.353,0.11,2.733,0.491,3.66c0.6,1.48,2.023,2.298,3.88,2.298
			c2.402,0,4.049-1.53,4.049-3.771c0-0.435,0-0.541-0.116-1.309c-0.161-1.041-0.322-3.284-0.322-4.757V19.709
			c0-3.717-1.151-5.191-4.051-5.191c-2.896,0-4.04,1.475-4.04,5.191v10.713c-1.585,3.223-3.879,5.027-6.232,5.027
			c-0.823,0-1.365-0.33-1.526-1.037c-0.165-0.603-0.165-0.603-0.165-3.828V19.709c0-3.717-1.15-5.191-4.045-5.191
			c-2.899,0-4.047,1.475-4.047,5.191v15.359c0,5.024,2.624,8.086,7.002,8.086c2.021,0,3.757-0.709,5.737-2.351
			C318.453,39.985,318.836,39.549,320.804,37.196z"/>
		<path fill="#00ADEE" d="M360.265,33.535V22.822c0-5.459-2.297-8.305-6.675-8.305c-3.383,0-6.888,2.188-10.056,6.341v-0.762
			c0-3.013-1.31-4.65-4.147-5.088l-2.136-0.385c-0.379-0.053-0.821-0.106-1.147-0.106c-1.479,0-2.733,1.307-2.733,2.846
			c0,1.033,0.715,2.07,1.636,2.399l0.439,0.113v18.087c0,3.717,1.149,5.191,4.051,5.191c2.838,0,4.038-1.475,4.038-5.191V27.411
			c2.404-2.944,5.579-5.242,7.221-5.242c1.253,0,1.418,0.49,1.418,4.151v7.436c0,3.607,0.218,5.793,0.654,6.882
			c0.656,1.643,2.023,2.517,3.933,2.517c2.412,0,3.935-1.475,3.935-3.819c0-0.279,0-0.493-0.055-0.663
			C360.43,36.982,360.265,35.172,360.265,33.535z"/>
		<path fill="#00ADEE" d="M366.653,22.935h1.202v11.533c0,3.606,0.435,5.193,1.689,6.554c1.317,1.367,3.389,2.133,5.801,2.133
			c2.182,0,4.531-0.654,6.225-1.691c1.536-0.928,2.135-1.802,2.135-3.012c0-1.533-1.094-2.679-2.624-2.679
			c-0.544,0-0.932,0.112-1.698,0.384c-0.761,0.276-1.038,0.33-1.527,0.33c-0.652,0-1.259-0.273-1.526-0.822
			c-0.33-0.492-0.385-0.987-0.385-3.655v-9.074h2.135c2.618,0,3.984-1.153,3.984-3.284c0-1.914-1.366-3.222-3.277-3.222h-2.842
			v-3.718c0-1.862-0.055-2.292-0.548-3.117c-0.711-1.199-1.969-1.853-3.496-1.853c-1.424,0-2.624,0.543-3.338,1.587
			c-0.602,0.876-0.707,1.361-0.707,3.383v3.718h-1.202c-2.133,0-3.499,1.308-3.499,3.334
			C363.154,21.622,364.571,22.935,366.653,22.935z"/>
		<path fill="#00ADEE" d="M409.009,39.764c0-0.275-0.059-0.652-0.116-0.982c-0.267-1.692-0.326-2.568-0.326-5.685v-8.197
			c0-4.096-0.157-5.023-1.145-6.558c-1.643-2.567-4.697-3.824-9.238-3.824c-2.892,0-5.955,0.385-7.432,0.929
			c-1.42,0.49-2.24,1.694-2.24,3.167c0,1.915,1.204,3.121,3.059,3.121c0.385,0,0.492,0,1.748-0.222
			c1.427-0.163,2.684-0.277,3.83-0.277c2.733,0,3.878,0.879,3.878,2.9v1.201l-0.87-0.215c-2.246-0.437-2.954-0.493-4.488-0.493
			c-6.717,0-10.378,3.497-10.378,9.896c0,5.303,3.439,8.629,8.849,8.629c3.668,0,5.471-1.204,7.326-4.703v0.884
			c0,2.401,1.311,3.819,3.549,3.819C407.534,43.154,409.009,41.897,409.009,39.764z M401.026,31.785
			c0,3.005-1.856,4.921-4.756,4.921c-1.799,0-2.789-0.984-2.789-2.679c0-2.242,1.647-3.552,4.537-3.552
			c1.037,0,1.804,0.108,3.008,0.385V31.785z"/>
		<path fill="#00ADEE" d="M418.302,11.946c2.347,0,3.98-1.64,3.98-3.988c0-2.35-1.634-3.992-3.98-3.992
			c-2.304,0-3.992,1.643-3.992,3.938C414.31,10.307,415.945,11.946,418.302,11.946z"/>
		<path fill="#00ADEE" d="M413.87,19.763l0.439,0.113v18.087c0,3.717,1.144,5.191,4.039,5.191c2.899,0,4.046-1.475,4.046-5.191
			V20.198c0-3.114-1.251-4.696-4.155-5.189l-2.132-0.385c-0.381-0.053-0.81-0.106-1.144-0.106c-1.477,0-2.738,1.307-2.738,2.846
			C412.226,18.396,412.939,19.434,413.87,19.763z"/>
		<path fill="#00ADEE" d="M454.097,38.672c-0.221-1.689-0.387-3.5-0.387-5.137V22.822c0-5.459-2.3-8.305-6.669-8.305
			c-3.389,0-6.888,2.188-10.06,6.341v-0.762c0-3.013-1.312-4.65-4.146-5.088l-2.133-0.385c-0.382-0.053-0.823-0.106-1.149-0.106
			c-1.471,0-2.729,1.307-2.729,2.846c0,1.033,0.711,2.07,1.633,2.399l0.44,0.113v18.087c0,3.717,1.144,5.191,4.044,5.191
			c2.839,0,4.041-1.475,4.041-5.191V27.411c2.406-2.944,5.576-5.242,7.224-5.242c1.254,0,1.415,0.49,1.415,4.151v7.436
			c0,3.607,0.222,5.793,0.652,6.882c0.66,1.643,2.031,2.517,3.938,2.517c2.403,0,3.944-1.475,3.944-3.819
			C454.155,39.056,454.155,38.842,454.097,38.672z"/>
	</g>
	<g>
		<path fill="#00ADEE" d="M8.781,93.832c0.729,0,1.251,0.499,1.251,1.229c0,0.812-0.522,1.25-1.52,1.25H7.702v3.458
			c0,1.021,0.018,1.206,0.145,1.396c0.104,0.209,0.331,0.314,0.583,0.314c0.187,0,0.293-0.023,0.583-0.129
			c0.292-0.101,0.44-0.146,0.648-0.146c0.583,0,0.997,0.438,0.997,1.021c0,0.459-0.228,0.796-0.812,1.149
			c-0.644,0.396-1.541,0.644-2.375,0.644c-0.916,0-1.706-0.293-2.208-0.813c-0.479-0.521-0.645-1.123-0.645-2.496v-4.397h-0.46
			c-0.792,0-1.333-0.5-1.333-1.207c0-0.773,0.522-1.272,1.333-1.272h0.46v-1.414c0-0.772,0.041-0.96,0.27-1.294
			c0.272-0.395,0.729-0.602,1.27-0.602c0.583,0,1.063,0.247,1.333,0.707c0.188,0.314,0.21,0.479,0.21,1.188v1.414H8.781z"/>
		<path fill="#00ADEE" d="M11.759,95.104c-0.353-0.128-0.625-0.522-0.625-0.917c0-0.604,0.48-1.085,1.042-1.085
			c0.125,0,0.294,0.022,0.459,0.042l0.792,0.149c0.979,0.165,1.415,0.768,1.415,2.017v0.377c0.564-1.793,1.294-2.585,2.375-2.585
			c0.876,0,1.438,0.562,1.438,1.458c0,0.853-0.395,1.297-1.418,1.604c-0.707,0.213-0.997,0.419-1.392,0.939
			c-0.585,0.769-0.835,1.727-0.835,3.164v1.771c0,1.417-0.439,1.979-1.541,1.979c-1.104,0-1.54-0.562-1.54-1.979v-6.896
			L11.759,95.104z"/>
		<path fill="#00ADEE" d="M24.963,96.768c0-0.766-0.438-1.104-1.479-1.104c-0.438,0-0.915,0.046-1.458,0.108
			c-0.48,0.085-0.52,0.085-0.667,0.085c-0.709,0-1.166-0.462-1.166-1.19c0-0.562,0.313-1.023,0.854-1.208
			c0.562-0.21,1.73-0.356,2.833-0.356c1.729,0,2.896,0.48,3.521,1.458c0.376,0.583,0.437,0.937,0.437,2.501v3.125
			c0,1.188,0.022,1.523,0.127,2.164c0.019,0.127,0.039,0.271,0.039,0.377c0,0.815-0.562,1.291-1.521,1.291
			c-0.851,0-1.353-0.54-1.353-1.458v-0.335c-0.707,1.333-1.395,1.793-2.791,1.793c-2.062,0-3.374-1.271-3.374-3.288
			c0-2.438,1.396-3.771,3.959-3.771c0.58,0,0.852,0.017,1.707,0.184l0.333,0.086V96.768z M24.963,99.334
			c-0.458-0.106-0.751-0.147-1.146-0.147c-1.104,0-1.729,0.499-1.729,1.354c0,0.648,0.375,1.021,1.063,1.021
			c1.102,0,1.812-0.729,1.812-1.876V99.334z"/>
		<path fill="#00ADEE" d="M30.517,95.104c-0.353-0.128-0.625-0.522-0.625-0.917c0-0.581,0.481-1.085,1.042-1.085
			c0.125,0,0.291,0.022,0.438,0.042l0.812,0.149c1.083,0.165,1.584,0.786,1.584,1.935v0.291c1.208-1.583,2.54-2.417,3.833-2.417
			c1.666,0,2.543,1.085,2.543,3.168v4.083c0,0.622,0.062,1.312,0.142,1.957c0.025,0.066,0.025,0.145,0.025,0.25
			c0,0.896-0.586,1.458-1.503,1.458c-0.728,0-1.25-0.329-1.5-0.958c-0.165-0.415-0.248-1.25-0.248-2.625v-2.833
			c0-1.395-0.064-1.582-0.541-1.582c-0.625,0-1.834,0.874-2.75,2v4.02c0,1.417-0.458,1.979-1.542,1.979
			c-1.107,0-1.543-0.562-1.543-1.979v-6.896L30.517,95.104z"/>
		<path fill="#00ADEE" d="M50.032,95.104c0,0.687-0.542,1.166-1.313,1.166c-0.5,0-0.643-0.062-1.311-0.544
			c-0.313-0.207-0.749-0.331-1.271-0.331c-0.688,0-1.082,0.292-1.082,0.789c0,0.271,0.144,0.501,0.416,0.628
			c0.271,0.122,0.271,0.122,1.749,0.479c2.353,0.563,3.419,1.604,3.419,3.354c0,2.082-1.689,3.373-4.418,3.373
			c-1.354,0-2.354-0.23-3.081-0.683c-0.835-0.547-1.316-1.233-1.316-1.941c0-0.629,0.565-1.146,1.233-1.146
			c0.519,0,0.643,0.085,1.435,0.939c0.333,0.351,0.897,0.54,1.564,0.54c0.915,0,1.437-0.396,1.437-1.063
			c0-0.229-0.105-0.459-0.272-0.563c-0.229-0.167-0.229-0.167-1.435-0.455c-2.709-0.668-3.771-1.606-3.771-3.314
			c0-2.107,1.458-3.229,4.208-3.229C48.491,93.103,50.032,93.917,50.032,95.104z"/>
		<path fill="#00ADEE" d="M55.693,102.06c0,1.397-0.437,1.959-1.543,1.959c-1.103,0-1.54-0.562-1.54-1.959v-5.957h-0.272
			c-0.749,0-1.25-0.459-1.25-1.144c0-0.665,0.501-1.127,1.25-1.127h0.272v-0.916c0-1.228,0.229-1.98,0.833-2.646
			c0.707-0.812,1.625-1.148,3.083-1.148c1.352,0,1.938,0.379,1.938,1.272c0,0.459-0.168,0.815-0.481,1.021
			c-0.248,0.188-0.396,0.21-1.041,0.252c-1.062,0.06-1.25,0.334-1.25,1.83v0.334h1.125c0.686,0,1.123,0.416,1.123,1.082
			c0,0.796-0.457,1.188-1.374,1.188h-0.875V102.06z"/>
		<path fill="#00ADEE" d="M68.65,98.564c0,3.352-1.939,5.454-5.064,5.454c-3.167,0-5.083-2.084-5.083-5.52
			c0-1.438,0.438-2.789,1.188-3.709c0.917-1.125,2.208-1.688,3.895-1.688C66.711,93.103,68.65,95.189,68.65,98.564z M61.837,98.538
			c0,1.982,0.561,2.919,1.748,2.919c1.167,0,1.731-0.937,1.731-2.893c0-1.964-0.564-2.9-1.731-2.9
			C62.398,95.664,61.837,96.601,61.837,98.538z"/>
		<path fill="#00ADEE" d="M70.413,95.104c-0.354-0.128-0.623-0.522-0.623-0.917c0-0.604,0.478-1.085,1.039-1.085
			c0.125,0,0.293,0.022,0.462,0.042l0.788,0.149c0.98,0.165,1.416,0.768,1.416,2.017v0.377c0.563-1.793,1.293-2.585,2.375-2.585
			c0.877,0,1.439,0.562,1.439,1.458c0,0.853-0.396,1.297-1.417,1.604c-0.709,0.213-0.998,0.419-1.394,0.939
			c-0.583,0.769-0.834,1.727-0.834,3.164v1.771c0,1.417-0.438,1.979-1.541,1.979c-1.105,0-1.543-0.562-1.543-1.979v-6.896
			L70.413,95.104z"/>
		<path fill="#00ADEE" d="M78.949,95.104c-0.352-0.128-0.625-0.522-0.625-0.917c0-0.581,0.481-1.085,1.041-1.085
			c0.104,0,0.293,0.022,0.437,0.042l0.814,0.149c1.062,0.165,1.584,0.684,1.584,1.538v0.188c1.041-1.329,2.06-1.918,3.371-1.918
			c1.294,0,2.125,0.625,2.521,1.918c0.895-1.247,2.042-1.918,3.292-1.918c1.039,0,1.893,0.504,2.29,1.336
			c0.189,0.352,0.315,1.142,0.315,1.916v3.999c0,0.479,0.062,1.312,0.121,1.729c0.046,0.249,0.046,0.334,0.046,0.479
			c0,0.896-0.587,1.458-1.502,1.458c-0.708,0-1.25-0.329-1.5-0.958c-0.166-0.415-0.25-1.293-0.25-2.625v-2.477
			c0-1.211-0.021-1.336-0.146-1.604c-0.082-0.17-0.31-0.313-0.479-0.313c-0.562,0-1.56,0.771-2.187,1.685v4.314
			c0,1.417-0.437,1.979-1.54,1.979c-1.104,0-1.542-0.562-1.542-1.979v-4.081c0-1.23-0.02-1.375-0.146-1.627
			c-0.084-0.147-0.313-0.291-0.478-0.291c-0.46,0-1.501,0.791-2.186,1.685v4.314c0,1.417-0.439,1.979-1.542,1.979
			s-1.541-0.562-1.541-1.979v-6.896L78.949,95.104z"/>
		<path fill="#00ADEE" d="M102.147,96.768c0-0.766-0.438-1.104-1.479-1.104c-0.435,0-0.917,0.046-1.458,0.108
			c-0.478,0.085-0.521,0.085-0.667,0.085c-0.708,0-1.167-0.462-1.167-1.19c0-0.562,0.312-1.023,0.854-1.208
			c0.564-0.21,1.73-0.356,2.833-0.356c1.729,0,2.896,0.48,3.52,1.458c0.377,0.583,0.438,0.937,0.438,2.501v3.125
			c0,1.188,0.023,1.523,0.126,2.164c0.02,0.127,0.041,0.271,0.041,0.377c0,0.815-0.56,1.291-1.521,1.291
			c-0.852,0-1.353-0.54-1.353-1.458v-0.335c-0.708,1.333-1.396,1.793-2.792,1.793c-2.063,0-3.375-1.271-3.375-3.288
			c0-2.438,1.397-3.771,3.96-3.771c0.581,0,0.854,0.017,1.704,0.184l0.335,0.086V96.768z M102.147,99.334
			c-0.458-0.106-0.749-0.147-1.145-0.147c-1.105,0-1.729,0.499-1.729,1.354c0,0.648,0.374,1.021,1.061,1.021
			c1.104,0,1.813-0.729,1.813-1.876V99.334z"/>
		<path fill="#00ADEE" d="M112.14,93.832c0.73,0,1.251,0.499,1.251,1.229c0,0.812-0.521,1.25-1.52,1.25h-0.812v3.458
			c0,1.021,0.02,1.206,0.144,1.396c0.106,0.209,0.335,0.314,0.583,0.314c0.189,0,0.293-0.023,0.585-0.129
			c0.291-0.101,0.437-0.146,0.642-0.146c0.586,0,1.004,0.438,1.004,1.021c0,0.459-0.229,0.796-0.814,1.149
			c-0.647,0.396-1.541,0.644-2.376,0.644c-0.915,0-1.707-0.293-2.209-0.813c-0.476-0.521-0.645-1.123-0.645-2.496v-4.397h-0.457
			c-0.792,0-1.334-0.5-1.334-1.207c0-0.773,0.52-1.272,1.334-1.272h0.457v-1.414c0-0.772,0.042-0.96,0.273-1.294
			c0.27-0.395,0.729-0.602,1.27-0.602c0.583,0,1.061,0.247,1.334,0.707c0.187,0.314,0.208,0.479,0.208,1.188v1.414H112.14z"/>
		<path fill="#00ADEE" d="M115.097,95.104c-0.354-0.128-0.626-0.522-0.626-0.917c0-0.581,0.48-1.085,1.042-1.085
			c0.124,0,0.292,0.022,0.437,0.042l0.813,0.149c1.103,0.187,1.582,0.786,1.582,1.976v6.771c0,1.417-0.436,1.979-1.541,1.979
			c-1.104,0-1.541-0.562-1.541-1.979v-6.896L115.097,95.104z M118.302,90.603c0,0.895-0.625,1.523-1.519,1.523
			c-0.898,0-1.52-0.629-1.52-1.541c0-0.876,0.645-1.503,1.52-1.503C117.678,89.082,118.302,89.709,118.302,90.603z"/>
		<path fill="#00ADEE" d="M124.114,98.021c0.228,0.771,0.354,1.353,0.541,2.433c0.252-1.165,0.395-1.722,0.625-2.433l1.104-3.582
			c0.208-0.665,0.272-0.773,0.541-1.002c0.252-0.229,0.584-0.334,1.001-0.334c0.938,0,1.563,0.562,1.563,1.376
			c0,0.269-0.083,0.583-0.229,0.979l-2.771,7.063c-0.271,0.685-0.353,0.815-0.646,1.061c-0.333,0.29-0.751,0.438-1.188,0.438
			c-0.499,0-0.937-0.183-1.29-0.522c-0.231-0.226-0.293-0.33-0.543-0.976l-2.772-6.976c-0.208-0.549-0.227-0.631-0.227-0.941
			c0-0.876,0.666-1.501,1.583-1.501c0.833,0,1.269,0.378,1.584,1.396L124.114,98.021z"/>
		<path fill="#00ADEE" d="M133.543,99.707v0.08c0.024,1.173,0.69,1.774,1.982,1.774c0.644,0,0.875-0.065,1.854-0.479
			c0.373-0.168,0.542-0.208,0.771-0.208c0.604,0,1.124,0.54,1.124,1.208c0,0.373-0.167,0.688-0.521,0.939
			c-0.916,0.645-2.25,1.018-3.625,1.018c-1.688,0-3.021-0.561-3.855-1.603c-0.707-0.897-0.999-1.896-0.999-3.438
			c0-3.954,1.645-5.896,4.999-5.896c1.541,0,2.686,0.48,3.458,1.421c0.584,0.725,0.917,1.77,0.917,2.787
			c0,0.854-0.166,1.355-0.562,1.732c-0.438,0.437-0.73,0.517-1.646,0.517h-3.897V99.707z M136.546,97.435
			c0.019-1.477-0.292-1.938-1.358-1.938c-1.101,0-1.622,0.605-1.646,1.938H136.546z"/>
		<path fill="#00ADEE" d="M147.244,91.124c-0.353-0.124-0.624-0.521-0.624-0.916c0-0.604,0.479-1.086,1.062-1.086
			c0.083,0,0.293,0.021,0.417,0.047l0.749,0.121c1.21,0.211,1.645,0.772,1.645,2.106v10.644c0,1.417-0.435,1.979-1.539,1.979
			c-1.107,0-1.542-0.562-1.542-1.979V91.168L147.244,91.124z"/>
		<path fill="#00ADEE" d="M155.7,99.707v0.08c0.021,1.173,0.685,1.774,1.978,1.774c0.645,0,0.872-0.065,1.853-0.479
			c0.377-0.168,0.541-0.208,0.772-0.208c0.604,0,1.125,0.54,1.125,1.208c0,0.373-0.165,0.688-0.521,0.939
			c-0.918,0.645-2.249,1.018-3.624,1.018c-1.69,0-3.021-0.561-3.855-1.603c-0.707-0.897-0.999-1.896-0.999-3.438
			c0-3.954,1.646-5.896,4.998-5.896c1.545,0,2.686,0.48,3.459,1.421c0.583,0.725,0.915,1.77,0.915,2.787
			c0,0.854-0.165,1.355-0.56,1.732c-0.439,0.437-0.731,0.517-1.648,0.517H155.7V99.707z M158.701,97.435
			c0.02-1.477-0.294-1.938-1.355-1.938c-1.106,0-1.625,0.605-1.646,1.938H158.701z"/>
		<path fill="#00ADEE" d="M168.798,96.768c0-0.766-0.438-1.104-1.478-1.104c-0.438,0-0.918,0.046-1.461,0.108
			c-0.478,0.085-0.521,0.085-0.667,0.085c-0.708,0-1.167-0.462-1.167-1.19c0-0.562,0.315-1.023,0.855-1.208
			c0.562-0.21,1.729-0.356,2.833-0.356c1.729,0,2.896,0.48,3.521,1.458c0.373,0.583,0.438,0.937,0.438,2.501v3.125
			c0,1.188,0.02,1.523,0.123,2.164c0.021,0.127,0.046,0.271,0.046,0.377c0,0.815-0.567,1.291-1.524,1.291
			c-0.853,0-1.353-0.54-1.353-1.458v-0.335c-0.71,1.333-1.397,1.793-2.795,1.793c-2.062,0-3.369-1.271-3.369-3.288
			c0-2.438,1.391-3.771,3.955-3.771c0.585,0,0.855,0.017,1.708,0.184l0.333,0.086V96.768z M168.798,99.334
			c-0.458-0.106-0.749-0.147-1.146-0.147c-1.104,0-1.727,0.499-1.727,1.354c0,0.648,0.373,1.021,1.059,1.021
			c1.106,0,1.814-0.729,1.814-1.876V99.334z"/>
		<path fill="#00ADEE" d="M174.23,95.104c-0.354-0.128-0.627-0.522-0.627-0.917c0-0.604,0.479-1.085,1.041-1.085
			c0.128,0,0.294,0.022,0.458,0.042l0.795,0.149c0.976,0.165,1.415,0.768,1.415,2.017v0.377c0.562-1.793,1.293-2.585,2.374-2.585
			c0.874,0,1.439,0.562,1.439,1.458c0,0.853-0.399,1.297-1.416,1.604c-0.71,0.213-1.001,0.419-1.395,0.939
			c-0.583,0.769-0.837,1.727-0.837,3.164v1.771c0,1.417-0.437,1.979-1.54,1.979c-1.102,0-1.539-0.562-1.539-1.979v-6.896
			L174.23,95.104z"/>
		<path fill="#00ADEE" d="M182.703,95.104c-0.354-0.128-0.623-0.522-0.623-0.917c0-0.581,0.477-1.085,1.042-1.085
			c0.123,0,0.29,0.022,0.435,0.042l0.812,0.149c1.087,0.165,1.586,0.786,1.586,1.935v0.291c1.204-1.583,2.539-2.417,3.832-2.417
			c1.666,0,2.542,1.085,2.542,3.168v4.083c0,0.622,0.064,1.312,0.144,1.957c0.02,0.066,0.02,0.145,0.02,0.25
			c0,0.896-0.581,1.458-1.496,1.458c-0.729,0-1.25-0.329-1.5-0.958c-0.168-0.415-0.251-1.25-0.251-2.625v-2.833
			c0-1.395-0.062-1.582-0.542-1.582c-0.624,0-1.831,0.874-2.747,2v4.02c0,1.417-0.46,1.979-1.542,1.979
			c-1.104,0-1.542-0.562-1.542-1.979v-6.896L182.703,95.104z"/>
		<path fill="#00ADEE" d="M194.926,95.104c-0.35-0.128-0.624-0.522-0.624-0.917c0-0.581,0.478-1.085,1.041-1.085
			c0.126,0,0.292,0.022,0.438,0.042l0.812,0.149c1.104,0.187,1.581,0.786,1.581,1.976v6.771c0,1.417-0.437,1.979-1.54,1.979
			c-1.101,0-1.539-0.562-1.539-1.979v-6.896L194.926,95.104z M198.133,90.603c0,0.895-0.624,1.523-1.522,1.523
			c-0.895,0-1.516-0.629-1.516-1.541c0-0.876,0.645-1.503,1.516-1.503C197.51,89.082,198.133,89.709,198.133,90.603z"/>
		<path fill="#00ADEE" d="M200.799,95.104c-0.355-0.128-0.629-0.522-0.629-0.917c0-0.581,0.483-1.085,1.044-1.085
			c0.125,0,0.291,0.022,0.435,0.042l0.813,0.149c1.084,0.165,1.586,0.786,1.586,1.935v0.291c1.205-1.583,2.539-2.417,3.831-2.417
			c1.666,0,2.544,1.085,2.544,3.168v4.083c0,0.622,0.061,1.312,0.144,1.957c0.021,0.066,0.021,0.145,0.021,0.25
			c0,0.896-0.584,1.458-1.5,1.458c-0.732,0-1.252-0.329-1.501-0.958c-0.166-0.415-0.248-1.25-0.248-2.625v-2.833
			c0-1.395-0.062-1.582-0.542-1.582c-0.627,0-1.836,0.874-2.749,2v4.02c0,1.417-0.46,1.979-1.542,1.979
			c-1.107,0-1.542-0.562-1.542-1.979v-6.896L200.799,95.104z"/>
		<path fill="#00ADEE" d="M218.936,102.622c-0.917,0.835-1.562,1.104-2.686,1.104c-2.5,0-3.937-1.83-3.937-4.994
			c0-3.378,1.645-5.629,4.103-5.629c1.103,0,1.979,0.396,2.669,1.191v-0.13c0-0.645,0.519-1.062,1.332-1.062
			c0.542,0,0.979,0.146,1.249,0.441c0.271,0.267,0.355,0.62,0.355,1.349v7.523c0,1.75-0.167,2.667-0.648,3.5
			c-0.789,1.394-2.436,2.084-4.914,2.084c-2.292,0-3.23-0.42-3.23-1.417c0-0.795,0.478-1.315,1.211-1.315
			c0.164,0,0.25,0,0.521,0.067c0.474,0.059,0.851,0.1,1.307,0.1c1.315,0,2.024-0.33,2.44-1.165c0.144-0.292,0.228-0.773,0.228-1.355
			V102.622z M218.936,98.021c0-1.397-0.625-2.209-1.687-2.209c-1.125,0-1.604,0.937-1.604,3.167c0,1.646,0.376,2.227,1.457,2.227
			c0.897,0,1.833-0.752,1.833-1.477V98.021z"/>
		<path fill="#00ADEE" d="M224.387,101.916c0-1.186,0.627-1.854,1.731-1.854c1.105,0,1.729,0.668,1.729,1.854v0.248
			c0,1.188-0.624,1.854-1.729,1.854c-1.104,0-1.731-0.666-1.731-1.854V101.916z"/>
		<path fill="#00ADEE" d="M235.007,95.104c-0.355-0.128-0.625-0.522-0.625-0.917c0-0.604,0.48-1.085,1.041-1.085
			c0.127,0,0.292,0.022,0.459,0.042l0.792,0.149c0.981,0.165,1.417,0.768,1.417,2.017v0.377c0.561-1.793,1.291-2.585,2.375-2.585
			c0.874,0,1.436,0.562,1.436,1.458c0,0.853-0.396,1.297-1.413,1.604c-0.712,0.213-1.004,0.419-1.398,0.939
			c-0.585,0.769-0.836,1.727-0.836,3.164v1.771c0,1.417-0.436,1.979-1.54,1.979c-1.104,0-1.542-0.562-1.542-1.979v-6.896
			L235.007,95.104z"/>
		<path fill="#00ADEE" d="M245.773,99.707v0.08c0.022,1.173,0.688,1.774,1.98,1.774c0.645,0,0.876-0.065,1.855-0.479
			c0.374-0.168,0.539-0.208,0.769-0.208c0.606,0,1.127,0.54,1.127,1.208c0,0.373-0.168,0.688-0.521,0.939
			c-0.917,0.645-2.252,1.018-3.625,1.018c-1.689,0-3.021-0.561-3.854-1.603c-0.71-0.897-1.001-1.896-1.001-3.438
			c0-3.954,1.646-5.896,5.002-5.896c1.538,0,2.686,0.48,3.454,1.421c0.584,0.725,0.916,1.77,0.916,2.787
			c0,0.854-0.163,1.355-0.561,1.732c-0.437,0.437-0.729,0.517-1.647,0.517h-3.894V99.707z M248.772,97.435
			c0.021-1.477-0.292-1.938-1.353-1.938c-1.104,0-1.625,0.605-1.646,1.938H248.772z"/>
		<path fill="#00ADEE" d="M258.871,96.768c0-0.766-0.437-1.104-1.479-1.104c-0.436,0-0.915,0.046-1.455,0.108
			c-0.482,0.085-0.522,0.085-0.668,0.085c-0.71,0-1.168-0.462-1.168-1.19c0-0.562,0.314-1.023,0.855-1.208
			c0.563-0.21,1.729-0.356,2.834-0.356c1.729,0,2.895,0.48,3.516,1.458c0.377,0.583,0.441,0.937,0.441,2.501v3.125
			c0,1.188,0.02,1.523,0.124,2.164c0.022,0.127,0.042,0.271,0.042,0.377c0,0.815-0.563,1.291-1.521,1.291
			c-0.854,0-1.354-0.54-1.354-1.458v-0.335c-0.71,1.333-1.398,1.793-2.792,1.793c-2.062,0-3.375-1.271-3.375-3.288
			c0-2.438,1.397-3.771,3.956-3.771c0.584,0,0.855,0.017,1.709,0.184l0.333,0.086V96.768z M258.871,99.334
			c-0.456-0.106-0.75-0.147-1.145-0.147c-1.103,0-1.73,0.499-1.73,1.354c0,0.648,0.378,1.021,1.065,1.021
			c1.102,0,1.81-0.729,1.81-1.876V99.334z"/>
		<path fill="#00ADEE" d="M264.139,91.124c-0.357-0.124-0.628-0.521-0.628-0.916c0-0.604,0.481-1.086,1.064-1.086
			c0.083,0,0.292,0.021,0.416,0.047l0.752,0.121c1.208,0.211,1.646,0.772,1.646,2.106v10.644c0,1.417-0.438,1.979-1.545,1.979
			c-1.103,0-1.54-0.562-1.54-1.979V91.168L264.139,91.124z"/>
		<path fill="#00ADEE" d="M279.42,98.375c0.21,0.893,0.293,1.271,0.457,2.391c0.106-0.517,0.209-1.018,0.253-1.185
			c0.041-0.146,0.187-0.706,0.437-1.541l0.898-3.187c0.354-1.226,0.792-1.646,1.728-1.646c1.021,0,1.459,0.399,1.79,1.646
			l0.957,3.584c0.169,0.623,0.273,1.144,0.479,2.395c0.127-0.54,0.21-1.062,0.253-1.229c0.081-0.542,0.166-0.937,0.228-1.122
			l1.272-4.256c0.228-0.812,0.581-1.122,1.247-1.122c0.73,0,1.251,0.457,1.251,1.106c0,0.206-0.062,0.479-0.164,0.768l-2.688,7.479
			c-0.272,0.75-0.334,0.854-0.627,1.126c-0.291,0.274-0.75,0.438-1.208,0.438c-0.959,0-1.458-0.46-1.749-1.625l-1-3.895
			c-0.188-0.789-0.271-1.165-0.438-2.252c-0.124,0.501-0.229,0.982-0.249,1.126c-0.127,0.544-0.21,0.897-0.251,1.083l-1.165,3.98
			c-0.208,0.709-0.272,0.851-0.522,1.106c-0.312,0.312-0.771,0.476-1.251,0.476c-0.541,0-0.956-0.183-1.248-0.522
			c-0.229-0.291-0.27-0.351-0.479-1.06l-2.169-7.023c-0.165-0.536-0.165-0.56-0.165-0.831c0-0.854,0.666-1.479,1.605-1.479
			c0.458,0,0.853,0.146,1.124,0.441c0.249,0.249,0.291,0.373,0.46,1.038L279.42,98.375z"/>
		<path fill="#00ADEE" d="M301.434,98.564c0,3.352-1.937,5.454-5.062,5.454c-3.166,0-5.084-2.084-5.084-5.52
			c0-1.438,0.435-2.789,1.188-3.709c0.916-1.125,2.206-1.688,3.896-1.688C299.497,93.103,301.434,95.189,301.434,98.564z
			 M294.624,98.538c0,1.982,0.559,2.919,1.748,2.919c1.165,0,1.727-0.937,1.727-2.893c0-1.964-0.562-2.9-1.727-2.9
			C295.183,95.664,294.624,96.601,294.624,98.538z"/>
		<path fill="#00ADEE" d="M303.201,95.104c-0.355-0.128-0.627-0.522-0.627-0.917c0-0.604,0.482-1.085,1.042-1.085
			c0.127,0,0.293,0.022,0.46,0.042l0.789,0.149c0.982,0.165,1.417,0.768,1.417,2.017v0.377c0.562-1.793,1.295-2.585,2.377-2.585
			c0.873,0,1.438,0.562,1.438,1.458c0,0.853-0.398,1.297-1.417,1.604c-0.71,0.213-1.002,0.419-1.396,0.939
			c-0.587,0.769-0.836,1.727-0.836,3.164v1.771c0,1.417-0.436,1.979-1.539,1.979s-1.542-0.562-1.542-1.979v-6.896L303.201,95.104z"
			/>
		<path fill="#00ADEE" d="M311.151,91.124c-0.352-0.124-0.626-0.521-0.626-0.916c0-0.604,0.481-1.086,1.065-1.086
			c0.082,0,0.291,0.021,0.416,0.047l0.75,0.121c1.21,0.211,1.646,0.772,1.646,2.106v10.644c0,1.417-0.436,1.979-1.543,1.979
			c-1.104,0-1.54-0.562-1.54-1.979V91.168L311.151,91.124z"/>
		<path fill="#00ADEE" d="M322.9,91.188c-0.562-0.188-0.812-0.501-0.812-0.979c0-0.604,0.476-1.086,1.061-1.086
			c0.104,0,0.293,0.021,0.438,0.047l1.104,0.185c1.041,0.167,1.581,0.812,1.581,1.834v8.561c0,1.44,0.021,1.834,0.169,2.603
			c0.02,0.086,0.02,0.189,0.02,0.295c0,0.833-0.583,1.373-1.499,1.373c-0.626,0-1.123-0.271-1.313-0.709
			c-0.102-0.268-0.121-0.436-0.121-1.164c-1.021,1.351-1.92,1.873-3.254,1.873c-2.394,0-3.832-1.937-3.832-5.204
			c0-3.504,1.646-5.712,4.251-5.712c0.937,0,1.833,0.311,2.501,0.857v-2.672L322.9,91.188z M323.193,98.001
			c0-1.44-0.668-2.337-1.729-2.337c-1.125,0-1.688,1.005-1.688,3.067c0,1.934,0.35,2.663,1.291,2.663
			c0.709,0,1.497-0.501,2.126-1.377V98.001z"/>
		<path fill="#00ADEE" d="M339.826,96.768c0-0.766-0.436-1.104-1.481-1.104c-0.434,0-0.913,0.046-1.453,0.108
			c-0.479,0.085-0.525,0.085-0.668,0.085c-0.709,0-1.167-0.462-1.167-1.19c0-0.562,0.314-1.023,0.853-1.208
			c0.562-0.21,1.73-0.356,2.833-0.356c1.731,0,2.893,0.48,3.521,1.458c0.373,0.583,0.436,0.937,0.436,2.501v3.125
			c0,1.188,0.022,1.523,0.124,2.164c0.023,0.127,0.043,0.271,0.043,0.377c0,0.815-0.563,1.291-1.521,1.291
			c-0.854,0-1.353-0.54-1.353-1.458v-0.335c-0.705,1.333-1.398,1.793-2.793,1.793c-2.061,0-3.375-1.271-3.375-3.288
			c0-2.438,1.398-3.771,3.958-3.771c0.586,0,0.854,0.017,1.709,0.184l0.334,0.086V96.768z M339.826,99.334
			c-0.456-0.106-0.748-0.147-1.147-0.147c-1.102,0-1.727,0.499-1.727,1.354c0,0.648,0.377,1.021,1.059,1.021
			c1.108,0,1.815-0.729,1.815-1.876V99.334z"/>
		<path fill="#00ADEE" d="M353.359,101.729c0,1.293-1.601,2.29-3.685,2.29c-3.208,0-4.978-1.959-4.978-5.454
			c0-1.689,0.373-2.984,1.142-3.897c0.857-1.002,2.214-1.564,3.73-1.564c2.001,0,3.688,1.062,3.688,2.334
			c0,0.64-0.543,1.147-1.273,1.147c-0.435,0-0.79-0.146-1.145-0.481c-0.437-0.376-0.623-0.459-1.086-0.459
			c-1.203,0-1.724,0.895-1.724,2.956c0,2.001,0.541,2.881,1.771,2.881c0.476,0,0.707-0.086,1.249-0.462
			c0.438-0.288,0.709-0.395,1.061-0.395C352.841,100.624,353.359,101.082,353.359,101.729z"/>
		<path fill="#00ADEE" d="M354.815,91.124c-0.357-0.124-0.625-0.521-0.625-0.916c0-0.604,0.479-1.086,1.061-1.086
			c0.085,0,0.293,0.021,0.419,0.047l0.811,0.144c1.082,0.188,1.581,0.791,1.581,1.956v4.229c1.169-1.537,2.503-2.395,3.813-2.395
			c1.67,0,2.544,1.085,2.544,3.168v4.083c0,0.377,0.062,1.438,0.124,1.729c0.043,0.249,0.043,0.334,0.043,0.479
			c0,0.877-0.625,1.458-1.565,1.458c-0.729,0-1.311-0.46-1.521-1.188c-0.104-0.438-0.164-1.292-0.164-2.396v-2.833
			c0-1.019,0-1.019-0.021-1.165c-0.043-0.272-0.228-0.417-0.498-0.417c-0.67,0-1.772,0.812-2.755,2v4.02
			c0,1.417-0.453,1.979-1.54,1.979c-1.102,0-1.541-0.562-1.541-1.979V91.168L354.815,91.124z"/>
		<path fill="#00ADEE" d="M366.911,95.104c-0.354-0.128-0.625-0.522-0.625-0.917c0-0.581,0.481-1.085,1.041-1.085
			c0.128,0,0.295,0.022,0.439,0.042l0.812,0.149c1.106,0.187,1.584,0.786,1.584,1.976v6.771c0,1.417-0.436,1.979-1.542,1.979
			c-1.103,0-1.54-0.562-1.54-1.979v-6.896L366.911,95.104z M370.12,90.603c0,0.895-0.625,1.523-1.52,1.523
			c-0.896,0-1.521-0.629-1.521-1.541c0-0.876,0.646-1.503,1.521-1.503C369.495,89.082,370.12,89.709,370.12,90.603z"/>
		<path fill="#00ADEE" d="M375.388,99.707v0.08c0.023,1.173,0.688,1.774,1.979,1.774c0.646,0,0.875-0.065,1.857-0.479
			c0.373-0.168,0.54-0.208,0.767-0.208c0.608,0,1.13,0.54,1.13,1.208c0,0.373-0.168,0.688-0.521,0.939
			c-0.92,0.645-2.254,1.018-3.629,1.018c-1.687,0-3.019-0.561-3.853-1.603c-0.706-0.897-0.999-1.896-0.999-3.438
			c0-3.954,1.644-5.896,4.999-5.896c1.54,0,2.686,0.48,3.458,1.421c0.583,0.725,0.914,1.77,0.914,2.787
			c0,0.854-0.164,1.355-0.561,1.732c-0.438,0.437-0.729,0.517-1.646,0.517h-3.895V99.707z M378.386,97.435
			c0.023-1.477-0.288-1.938-1.352-1.938c-1.104,0-1.623,0.605-1.646,1.938H378.386z"/>
		<path fill="#00ADEE" d="M386.76,98.021c0.228,0.771,0.35,1.353,0.538,2.433c0.249-1.165,0.395-1.722,0.625-2.433l1.104-3.582
			c0.21-0.665,0.274-0.773,0.543-1.002c0.251-0.229,0.582-0.334,1-0.334c0.937,0,1.562,0.562,1.562,1.376
			c0,0.269-0.085,0.583-0.229,0.979l-2.77,7.063c-0.271,0.685-0.356,0.815-0.645,1.061c-0.334,0.29-0.75,0.438-1.19,0.438
			c-0.503,0-0.939-0.183-1.289-0.522c-0.229-0.226-0.292-0.33-0.545-0.976l-2.769-6.976c-0.208-0.549-0.229-0.631-0.229-0.941
			c0-0.876,0.668-1.501,1.586-1.501c0.83,0,1.269,0.378,1.58,1.396L386.76,98.021z"/>
		<path fill="#00ADEE" d="M396.188,99.707v0.08c0.021,1.173,0.688,1.774,1.981,1.774c0.643,0,0.872-0.065,1.852-0.479
			c0.373-0.168,0.54-0.208,0.771-0.208c0.603,0,1.127,0.54,1.127,1.208c0,0.373-0.167,0.688-0.524,0.939
			c-0.917,0.645-2.249,1.018-3.624,1.018c-1.685,0-3.02-0.561-3.851-1.603c-0.709-0.897-1.001-1.896-1.001-3.438
			c0-3.954,1.646-5.896,4.998-5.896c1.54,0,2.687,0.48,3.458,1.421c0.583,0.725,0.915,1.77,0.915,2.787
			c0,0.854-0.165,1.355-0.561,1.732c-0.439,0.437-0.73,0.517-1.647,0.517h-3.895V99.707z M399.19,97.435
			c0.019-1.477-0.296-1.938-1.354-1.938c-1.106,0-1.627,0.605-1.647,1.938H399.19z"/>
		<path fill="#00ADEE" d="M404.497,95.104c-0.354-0.128-0.627-0.522-0.627-0.917c0-0.581,0.48-1.085,1.043-1.085
			c0.104,0,0.288,0.022,0.438,0.042l0.812,0.149c1.063,0.165,1.584,0.684,1.584,1.538v0.188c1.038-1.329,2.061-1.918,3.373-1.918
			c1.291,0,2.125,0.625,2.52,1.918c0.897-1.247,2.043-1.918,3.291-1.918c1.044,0,1.896,0.504,2.295,1.336
			c0.185,0.352,0.312,1.142,0.312,1.916v3.999c0,0.479,0.059,1.312,0.121,1.729c0.042,0.249,0.042,0.334,0.042,0.479
			c0,0.896-0.58,1.458-1.494,1.458c-0.714,0-1.257-0.329-1.503-0.958c-0.167-0.415-0.252-1.293-0.252-2.625v-2.477
			c0-1.211-0.02-1.336-0.146-1.604c-0.082-0.17-0.312-0.313-0.479-0.313c-0.562,0-1.563,0.771-2.188,1.685v4.314
			c0,1.417-0.437,1.979-1.54,1.979s-1.545-0.562-1.545-1.979v-4.081c0-1.23-0.021-1.375-0.141-1.627
			c-0.086-0.147-0.314-0.291-0.481-0.291c-0.458,0-1.501,0.791-2.186,1.685v4.314c0,1.417-0.437,1.979-1.541,1.979
			c-1.11,0-1.546-0.562-1.546-1.979v-6.896L404.497,95.104z"/>
		<path fill="#00ADEE" d="M425.026,99.707v0.08c0.024,1.173,0.69,1.774,1.983,1.774c0.639,0,0.871-0.065,1.85-0.479
			c0.377-0.168,0.542-0.208,0.771-0.208c0.604,0,1.126,0.54,1.126,1.208c0,0.373-0.167,0.688-0.522,0.939
			c-0.916,0.645-2.248,1.018-3.624,1.018c-1.688,0-3.021-0.561-3.852-1.603c-0.71-0.897-1.001-1.896-1.001-3.438
			c0-3.954,1.646-5.896,5-5.896c1.542,0,2.685,0.48,3.455,1.421c0.583,0.725,0.919,1.77,0.919,2.787
			c0,0.854-0.169,1.355-0.562,1.732c-0.44,0.437-0.731,0.517-1.648,0.517h-3.896V99.707z M428.027,97.435
			c0.021-1.477-0.29-1.938-1.354-1.938c-1.106,0-1.622,0.605-1.646,1.938H428.027z"/>
		<path fill="#00ADEE" d="M433.191,95.104c-0.356-0.128-0.628-0.522-0.628-0.917c0-0.581,0.48-1.085,1.041-1.085
			c0.124,0,0.291,0.022,0.437,0.042l0.814,0.149c1.083,0.165,1.586,0.786,1.586,1.935v0.291c1.205-1.583,2.537-2.417,3.828-2.417
			c1.667,0,2.545,1.085,2.545,3.168v4.083c0,0.622,0.062,1.312,0.144,1.957c0.02,0.066,0.02,0.145,0.02,0.25
			c0,0.896-0.58,1.458-1.496,1.458c-0.73,0-1.249-0.329-1.501-0.958c-0.164-0.415-0.247-1.25-0.247-2.625v-2.833
			c0-1.395-0.064-1.582-0.545-1.582c-0.626,0-1.831,0.874-2.747,2v4.02c0,1.417-0.464,1.979-1.546,1.979
			c-1.102,0-1.537-0.562-1.537-1.979v-6.896L433.191,95.104z"/>
		<path fill="#00ADEE" d="M450.077,93.832c0.73,0,1.249,0.499,1.249,1.229c0,0.812-0.519,1.25-1.516,1.25h-0.815v3.458
			c0,1.021,0.017,1.206,0.147,1.396c0.101,0.209,0.33,0.314,0.583,0.314c0.185,0,0.291-0.023,0.579-0.129
			c0.293-0.101,0.438-0.146,0.648-0.146c0.583,0,1,0.438,1,1.021c0,0.459-0.229,0.796-0.812,1.149
			c-0.648,0.396-1.545,0.644-2.379,0.644c-0.913,0-1.705-0.293-2.203-0.813c-0.485-0.521-0.646-1.123-0.646-2.496v-4.397h-0.462
			c-0.788,0-1.333-0.5-1.333-1.207c0-0.773,0.518-1.272,1.333-1.272h0.462v-1.414c0-0.772,0.039-0.96,0.267-1.294
			c0.271-0.395,0.73-0.602,1.273-0.602c0.583,0,1.061,0.247,1.333,0.707c0.187,0.314,0.209,0.479,0.209,1.188v1.414H450.077z"/>
		<path fill="#00ADEE" d="M453.281,101.916c0-1.186,0.622-1.854,1.726-1.854c1.106,0,1.73,0.668,1.73,1.854v0.248
			c0,1.188-0.624,1.854-1.73,1.854c-1.104,0-1.726-0.666-1.726-1.854V101.916z"/>
	</g>
	<g>
		<path fill="#00ADEE" d="M105.631,76.538H93.245V56.749c0-0.406-0.311-0.717-0.719-0.717c-0.373,0-0.718,0.311-0.718,0.717v20.509
			c0,0.409,0.346,0.719,0.718,0.719h13.105c0.409,0,0.718-0.31,0.718-0.719C106.349,76.848,106.04,76.538,105.631,76.538z"/>
		<path fill="#00ADEE" d="M123.593,76.538H111.21v-9.599h10.194c0.406,0,0.722-0.312,0.722-0.715c0-0.411-0.316-0.726-0.722-0.726
			H111.21V57.47h8.181c0.413,0,0.728-0.312,0.728-0.721c0-0.406-0.314-0.717-0.728-0.717h-8.905c-0.371,0-0.721,0.311-0.721,0.717
			v20.509c0,0.409,0.35,0.719,0.721,0.719h13.106c0.412,0,0.724-0.31,0.724-0.719C124.316,76.848,124.004,76.538,123.593,76.538z"/>
		<path fill="#00ADEE" d="M139.18,56.343c-0.133-0.218-0.315-0.407-0.665-0.407c-0.349,0-0.533,0.189-0.651,0.407l-10.915,20.568
			c-0.188,0.347-0.037,0.78,0.315,0.971c0.347,0.187,0.782,0.067,0.973-0.311l4.351-8.216h11.857l4.356,8.216
			c0.19,0.378,0.627,0.497,0.973,0.311c0.346-0.19,0.499-0.624,0.316-0.971L139.18,56.343z M133.341,67.916l5.174-9.724l5.148,9.724
			H133.341z"/>
		<path fill="#00ADEE" d="M173.881,76.538h-1.005c-2.04,0-2.852-1.352-3.316-4.05c-0.699-3.854-1.7-5.673-4.301-6.361
			c1.845-0.722,3.04-2.45,3.04-4.644c0-3.044-2.415-5.451-5.391-5.451h-7.996c-0.379,0-0.718,0.311-0.718,0.717v20.509
			c0,0.409,0.339,0.719,0.718,0.719c0.407,0,0.724-0.31,0.724-0.719V66.939h6.738c3.856,0,4.73,1.601,5.733,6.18
			c0.853,3.856,2.551,4.857,4.86,4.857h0.914c0.406,0,0.718-0.31,0.718-0.719C174.6,76.848,174.287,76.538,173.881,76.538z
			 M155.636,65.499V57.47h7.241c2.163,0,3.982,1.824,3.982,4.014c0,2.193-1.695,4.016-3.982,4.016H155.636z"/>
		<path fill="#00ADEE" d="M196.074,56.032c-0.372,0-0.717,0.311-0.717,0.717v11.35l-16.272-11.786
			c-0.162-0.125-0.382-0.28-0.597-0.28c-0.378,0-0.696,0.311-0.696,0.717v20.509c0,0.409,0.348,0.719,0.727,0.719
			c0.405,0,0.72-0.31,0.72-0.719V58.192l16.12,11.627v7.438c0,0.409,0.346,0.719,0.717,0.719c0.412,0,0.724-0.31,0.724-0.719V56.749
			C196.797,56.343,196.485,56.032,196.074,56.032z"/>
		<path fill="#00ADEE" d="M203.13,56.032c-0.38,0-0.729,0.311-0.729,0.717v20.509c0,0.409,0.348,0.719,0.729,0.719
			c0.406,0,0.712-0.31,0.712-0.719V56.749C203.843,56.343,203.537,56.032,203.13,56.032z"/>
		<path fill="#00ADEE" d="M228.211,56.032c-0.372,0-0.72,0.311-0.72,0.717v11.35l-16.275-11.786c-0.159-0.125-0.378-0.28-0.596-0.28
			c-0.379,0-0.687,0.311-0.687,0.717v20.509c0,0.409,0.341,0.719,0.711,0.719c0.413,0,0.732-0.31,0.732-0.719V58.192l16.114,11.627
			v7.438c0,0.409,0.348,0.719,0.72,0.719c0.406,0,0.724-0.31,0.724-0.719V56.749C228.935,56.343,228.617,56.032,228.211,56.032z"/>
		<path fill="#00ADEE" d="M253.009,67.726h-5.764c-0.383,0-0.7,0.312-0.7,0.723c0,0.377,0.317,0.719,0.7,0.719h5.042v4.17
			c-1.819,2.226-4.642,3.67-7.745,3.67c-5.52,0-9.942-4.483-9.942-10.009c0-5.515,4.446-9.999,9.973-9.999
			c2.379,0,4.64,0.878,6.302,2.259c0.282,0.218,0.779,0.191,1.01-0.128c0.303-0.407,0.148-0.782-0.165-1.063
			c-1.851-1.599-4.425-2.508-7.147-2.508c-6.305,0-11.419,5.148-11.419,11.439c0,6.31,5.081,11.454,11.388,11.454
			c3.035,0,5.709-1.227,7.745-3.169v1.942c0,0.411,0.311,0.724,0.722,0.724c0.375,0,0.723-0.312,0.723-0.724v-8.777
			C253.731,68.037,253.384,67.726,253.009,67.726z"/>
		<path fill="#00ADEE" d="M279.308,56.343c-0.13-0.218-0.316-0.407-0.656-0.407c-0.35,0-0.536,0.189-0.662,0.407l-10.912,20.568
			c-0.187,0.347-0.025,0.78,0.32,0.971c0.344,0.187,0.783,0.067,0.969-0.311l4.358-8.216h11.854l4.358,8.216
			c0.183,0.378,0.623,0.497,0.975,0.311c0.343-0.19,0.499-0.624,0.309-0.971L279.308,56.343z M273.476,67.916l5.176-9.724
			l5.147,9.724H273.476z"/>
		<path fill="#00ADEE" d="M302.319,56.999c2.381,0,4.642,0.878,6.295,2.259c0.297,0.218,0.795,0.191,1.009-0.128
			c0.318-0.407,0.161-0.782-0.152-1.063c-1.852-1.599-4.426-2.508-7.151-2.508c-6.303,0-11.417,5.148-11.417,11.439
			c0,6.31,5.114,11.454,11.417,11.454c2.694,0,5.3-0.943,7.151-2.547c0.28-0.246,0.409-0.655,0.127-1.03
			c-0.286-0.348-0.723-0.309-0.983-0.097c-1.616,1.379-3.882,2.229-6.295,2.229c-5.521,0-9.969-4.483-9.969-10.009
			C292.351,61.483,296.798,56.999,302.319,56.999z"/>
		<path fill="#00ADEE" d="M325.233,56.343c-0.118-0.218-0.312-0.407-0.656-0.407c-0.346,0-0.525,0.189-0.657,0.407l-10.911,20.568
			c-0.187,0.347-0.029,0.78,0.313,0.971c0.34,0.187,0.78,0.067,0.977-0.311l4.349-8.216h11.855l4.361,8.216
			c0.19,0.378,0.62,0.497,0.968,0.311c0.344-0.19,0.507-0.624,0.314-0.971L325.233,56.343z M319.397,67.916l5.18-9.724l5.143,9.724
			H319.397z"/>
		<path fill="#00ADEE" d="M346.555,56.032h-6.361c-0.379,0-0.727,0.311-0.727,0.717v20.509c0,0.409,0.348,0.719,0.727,0.719h6.361
			c6.08,0,10.975-4.921,10.975-10.979C357.529,60.956,352.635,56.032,346.555,56.032z M346.681,76.538h-5.776V57.47h5.776
			c5.267,0,9.405,4.267,9.405,9.528C356.086,72.272,351.947,76.538,346.681,76.538z"/>
		<path fill="#00ADEE" d="M375.578,76.538h-12.382v-9.599h10.188c0.412,0,0.73-0.312,0.73-0.715c0-0.411-0.318-0.726-0.73-0.726
			h-10.188V57.47h8.189c0.406,0,0.719-0.312,0.719-0.721c0-0.406-0.312-0.717-0.719-0.717h-8.906c-0.377,0-0.725,0.311-0.725,0.717
			v20.509c0,0.409,0.348,0.719,0.725,0.719h13.099c0.408,0,0.727-0.31,0.727-0.719C376.305,76.848,375.986,76.538,375.578,76.538z"
			/>
		<path fill="#00ADEE" d="M401.135,56.032c-0.155,0-0.376,0.062-0.53,0.217l-9.844,8.43l-9.854-8.394
			c-0.152-0.129-0.308-0.253-0.532-0.253c-0.377,0-0.722,0.311-0.722,0.717v20.509c0,0.409,0.345,0.719,0.722,0.719
			c0.412,0,0.727-0.31,0.727-0.719V58.324l8.681,7.427c0.63,0.531,1.316,0.531,1.943,0l8.689-7.427v18.934
			c0,0.409,0.345,0.719,0.721,0.719c0.408,0,0.723-0.31,0.723-0.719V56.749C401.857,56.343,401.543,56.032,401.135,56.032z"/>
		<path fill="#00ADEE" d="M424.367,56.343l-8.655,12.137l-8.658-12.137c-0.246-0.311-0.688-0.407-1.006-0.155
			c-0.311,0.217-0.404,0.657-0.187,1.002l9.128,12.763v7.306c0,0.409,0.346,0.719,0.723,0.719c0.408,0,0.715-0.31,0.715-0.719
			v-7.306l9.136-12.763c0.214-0.345,0.116-0.785-0.195-1.002C425.057,55.936,424.616,56.032,424.367,56.343z"/>
		<path fill="#00ADEE" d="M92.311,10.311v26.346c0,2.455,0.275,3.22,1.364,4.369c1.154,1.098,1.92,1.365,4.373,1.365h12.955
			c1.476,0,1.859-0.054,2.57-0.489c1.036-0.66,1.642-1.75,1.642-2.95c0-1.862-1.532-3.393-3.447-3.393h-10.983V10.204
			c0-1.806-0.103-2.462-0.487-3.228c-0.659-1.313-1.976-2.186-3.668-2.514l-1.698-0.271c-0.436-0.058-0.925-0.11-1.306-0.11
			c-1.916,0-3.387,1.526-3.387,3.496c0,1.2,0.433,1.802,1.689,2.515L92.311,10.311z"/>
		<path fill="#00ADEE" d="M122.589,11.949c2.347,0,3.987-1.639,3.987-3.991c0-2.35-1.64-3.987-3.987-3.987
			c-2.296,0-3.991,1.638-3.991,3.935C118.599,10.311,120.236,11.949,122.589,11.949z"/>
		<path fill="#00ADEE" d="M122.538,15.009l-2.136-0.383c-0.382-0.055-0.823-0.108-1.149-0.108c-1.474,0-2.729,1.311-2.729,2.849
			c0,1.03,0.706,2.067,1.64,2.396l0.436,0.113v18.089c0,3.717,1.148,5.191,4.049,5.191c2.892,0,4.045-1.475,4.045-5.191V20.2
			C126.692,17.088,125.427,15.502,122.538,15.009z"/>
		<path fill="#00ADEE" d="M147.725,35.775c-0.544,0-0.931,0.113-1.692,0.385c-0.767,0.272-1.032,0.328-1.531,0.328
			c-0.658,0-1.254-0.271-1.531-0.824c-0.324-0.488-0.381-0.983-0.381-3.655v-9.073h2.132c2.626,0,3.988-1.154,3.988-3.281
			c0-1.918-1.362-3.222-3.283-3.222h-2.836v-3.722c0-1.856-0.054-2.292-0.552-3.116c-0.707-1.196-1.961-1.853-3.493-1.853
			c-1.426,0-2.622,0.542-3.334,1.586c-0.6,0.876-0.708,1.363-0.708,3.383v3.722h-1.2c-2.137,0-3.507,1.304-3.507,3.33
			c0,1.861,1.428,3.173,3.507,3.173h1.2v11.535c0,3.604,0.433,5.191,1.694,6.555c1.31,1.365,3.387,2.131,5.79,2.131
			c2.187,0,4.54-0.654,6.231-1.693c1.536-0.928,2.134-1.801,2.134-3.009C150.351,36.92,149.259,35.775,147.725,35.775z"/>
		<path fill="#00ADEE" d="M155.43,22.936v11.535c0,3.604,0.438,5.191,1.698,6.555c1.312,1.365,3.392,2.131,5.796,2.131
			c2.18,0,4.531-0.654,6.224-1.693c1.53-0.928,2.133-1.801,2.133-3.009c0-1.534-1.099-2.679-2.613-2.679
			c-0.561,0-0.942,0.113-1.709,0.385c-0.756,0.272-1.032,0.328-1.522,0.328c-0.659,0-1.255-0.271-1.528-0.824
			c-0.334-0.488-0.392-0.983-0.392-3.655v-9.073h2.137c2.619,0,3.99-1.154,3.99-3.281c0-1.918-1.371-3.222-3.279-3.222h-2.848
			v-3.722c0-1.856-0.049-2.292-0.548-3.116c-0.711-1.196-1.961-1.853-3.493-1.853c-1.417,0-2.622,0.542-3.329,1.586
			c-0.6,0.876-0.716,1.363-0.716,3.383v3.722h-1.201c-2.132,0-3.501,1.304-3.501,3.33c0,1.861,1.42,3.173,3.501,3.173H155.43z"/>
		<path fill="#00ADEE" d="M182.264,37.965V10.037c0-3.499-1.149-4.976-4.316-5.521l-1.973-0.323c-0.321-0.058-0.869-0.11-1.084-0.11
			c-1.538,0-2.792,1.255-2.792,2.844c0,1.032,0.718,2.077,1.643,2.402l0.438,0.114v28.522c0,3.717,1.146,5.191,4.043,5.191
			C181.115,43.156,182.264,41.682,182.264,37.965z"/>
		<path fill="#00ADEE" d="M207.735,34.905c-0.595,0-1.047,0.112-2.026,0.545c-2.567,1.093-3.168,1.256-4.861,1.256
			c-3.388,0-5.139-1.583-5.193-4.644v-0.222v-0.382h10.22c2.403,0,3.168-0.216,4.317-1.364c1.041-0.985,1.479-2.295,1.479-4.534
			c0-2.677-0.881-5.413-2.41-7.328c-2.021-2.458-5.028-3.715-9.072-3.715c-8.801,0-13.116,5.083-13.116,15.471
			c0,4.043,0.77,6.668,2.621,9.015c2.191,2.735,5.692,4.211,10.111,4.211c3.613,0,7.109-0.98,9.513-2.679
			c0.929-0.659,1.366-1.479,1.366-2.461C210.684,36.327,209.318,34.905,207.735,34.905z M199.967,20.804
			c2.794,0,3.611,1.206,3.56,5.081h-7.873C195.708,22.383,197.075,20.804,199.967,20.804z"/>
		<path fill="#00ADEE" d="M268.395,37.965V10.744c0-3.88-1.093-5.244-4.757-5.844l-4.208-0.656
			c-1.138-0.215-1.138-0.215-1.584-0.215c-2.13,0-3.768,1.579-3.768,3.713c0,1.036,0.491,1.805,1.421,2.238l0.437,0.224
			l-4.32,11.204c-1.363,3.721-1.97,6.115-2.299,9.943c-0.536-3.33-1.196-5.467-2.783-9.509l-4.915-12.68
			c-0.983-2.734-2.078-3.663-4.81-4.048l-5.197-0.871c-0.487-0.109-1.032-0.162-1.368-0.162c-1.907,0-3.438,1.471-3.438,3.387
			c0,1.145,0.547,2.078,1.475,2.568l0.548,0.273v27.654c0,3.659,1.09,5.191,3.71,5.191c2.628,0,3.722-1.532,3.722-5.191v-12.08
			c0-4.205-0.107-7.322-0.547-13.279c0.49,1.419,0.823,2.403,0.984,2.788c0.708,1.914,1.421,3.826,2.076,5.683l7.433,20.058
			c0.542,1.535,1.152,2.022,2.409,2.022c1.255,0,1.854-0.487,2.405-2.022l7.272-19.842c1.959-5.3,1.959-5.353,3.218-9.284
			c-0.438,5.358-0.55,7.486-0.55,12.073v13.884c0,3.717,1.099,5.191,3.718,5.191C267.302,43.156,268.395,41.624,268.395,37.965z"/>
		<path fill="#00ADEE" d="M286.973,43.156c8.196,0,13.281-5.521,13.281-14.319c0-8.854-5.085-14.319-13.281-14.319
			c-4.424,0-7.815,1.475-10.217,4.43c-1.969,2.402-3.117,5.953-3.117,9.726C273.639,37.689,278.661,43.156,286.973,43.156z
			 M286.973,21.239c3.062,0,4.537,2.46,4.537,7.598c0,5.137-1.475,7.596-4.537,7.596c-3.11,0-4.589-2.459-4.589-7.646
			C282.384,23.699,283.862,21.239,286.973,21.239z"/>
		<path fill="#00ADEE" d="M320.804,37.201c0.058,2.348,0.11,2.732,0.491,3.657c0.6,1.479,2.023,2.298,3.88,2.298
			c2.402,0,4.049-1.532,4.049-3.773c0-0.432,0-0.541-0.116-1.309c-0.161-1.037-0.322-3.28-0.322-4.756V19.709
			c0-3.717-1.151-5.191-4.051-5.191c-2.896,0-4.04,1.475-4.04,5.191v10.716c-1.585,3.22-3.879,5.025-6.232,5.025
			c-0.823,0-1.365-0.327-1.526-1.038c-0.165-0.601-0.165-0.601-0.165-3.824V19.709c0-3.717-1.15-5.191-4.045-5.191
			c-2.899,0-4.047,1.475-4.047,5.191v15.359c0,5.028,2.624,8.088,7.002,8.088c2.021,0,3.757-0.707,5.737-2.349
			C318.453,39.985,318.836,39.549,320.804,37.201z"/>
		<path fill="#00ADEE" d="M360.265,33.539V22.826c0-5.46-2.297-8.309-6.675-8.309c-3.383,0-6.888,2.193-10.056,6.341v-0.762
			c0-3.009-1.31-4.65-4.147-5.088l-2.136-0.383c-0.379-0.055-0.821-0.108-1.147-0.108c-1.479,0-2.733,1.311-2.733,2.849
			c0,1.03,0.715,2.067,1.636,2.396l0.439,0.113v18.089c0,3.717,1.149,5.191,4.051,5.191c2.838,0,4.038-1.475,4.038-5.191v-10.55
			c2.404-2.946,5.579-5.246,7.221-5.246c1.253,0,1.418,0.49,1.418,4.151v7.439c0,3.604,0.218,5.789,0.654,6.882
			c0.656,1.643,2.023,2.515,3.933,2.515c2.412,0,3.935-1.475,3.935-3.821c0-0.279,0-0.493-0.055-0.659
			C360.43,36.982,360.265,35.176,360.265,33.539z"/>
		<path fill="#00ADEE" d="M366.653,22.936h1.202v11.535c0,3.604,0.435,5.191,1.689,6.555c1.317,1.365,3.389,2.131,5.801,2.131
			c2.182,0,4.531-0.654,6.225-1.693c1.536-0.928,2.135-1.801,2.135-3.009c0-1.534-1.094-2.679-2.624-2.679
			c-0.544,0-0.932,0.113-1.698,0.385c-0.761,0.272-1.038,0.328-1.527,0.328c-0.652,0-1.259-0.271-1.526-0.824
			c-0.33-0.488-0.385-0.983-0.385-3.655v-9.073h2.135c2.618,0,3.984-1.154,3.984-3.281c0-1.918-1.366-3.222-3.277-3.222h-2.842
			v-3.722c0-1.856-0.055-2.292-0.548-3.116c-0.711-1.196-1.969-1.853-3.496-1.853c-1.424,0-2.624,0.542-3.338,1.586
			c-0.602,0.876-0.707,1.363-0.707,3.383v3.722h-1.202c-2.133,0-3.499,1.304-3.499,3.33
			C363.154,21.624,364.571,22.936,366.653,22.936z"/>
		<path fill="#00ADEE" d="M409.009,39.764c0-0.27-0.059-0.652-0.116-0.979c-0.267-1.695-0.326-2.567-0.326-5.688V24.9
			c0-4.097-0.157-5.024-1.145-6.556c-1.643-2.57-4.697-3.827-9.238-3.827c-2.892,0-5.955,0.388-7.432,0.929
			c-1.42,0.493-2.24,1.698-2.24,3.17c0,1.914,1.204,3.118,3.059,3.118c0.385,0,0.492,0,1.748-0.222
			c1.427-0.163,2.684-0.273,3.83-0.273c2.733,0,3.878,0.876,3.878,2.896v1.201l-0.87-0.208c-2.246-0.439-2.954-0.5-4.488-0.5
			c-6.717,0-10.378,3.498-10.378,9.9c0,5.299,3.439,8.627,8.849,8.627c3.668,0,5.471-1.2,7.326-4.702v0.881
			c0,2.403,1.311,3.821,3.549,3.821C407.534,43.156,409.009,41.901,409.009,39.764z M401.026,31.785
			c0,3.009-1.856,4.921-4.756,4.921c-1.799,0-2.789-0.98-2.789-2.675c0-2.246,1.647-3.556,4.537-3.556
			c1.037,0,1.804,0.112,3.008,0.387V31.785z"/>
		<path fill="#00ADEE" d="M418.302,11.949c2.347,0,3.98-1.639,3.98-3.991c0-2.35-1.634-3.987-3.98-3.987
			c-2.304,0-3.992,1.638-3.992,3.935C414.31,10.311,415.945,11.949,418.302,11.949z"/>
		<path fill="#00ADEE" d="M413.87,19.763l0.439,0.113v18.089c0,3.717,1.144,5.191,4.039,5.191c2.899,0,4.046-1.475,4.046-5.191V20.2
			c0-3.112-1.251-4.698-4.155-5.191l-2.132-0.383c-0.381-0.055-0.81-0.108-1.144-0.108c-1.477,0-2.738,1.311-2.738,2.849
			C412.226,18.396,412.939,19.434,413.87,19.763z"/>
		<path fill="#00ADEE" d="M454.097,38.676c-0.221-1.693-0.387-3.5-0.387-5.137V22.826c0-5.46-2.3-8.309-6.669-8.309
			c-3.389,0-6.888,2.193-10.06,6.341v-0.762c0-3.009-1.312-4.65-4.146-5.088l-2.133-0.383c-0.382-0.055-0.823-0.108-1.149-0.108
			c-1.471,0-2.729,1.311-2.729,2.849c0,1.03,0.711,2.067,1.633,2.396l0.44,0.113v18.089c0,3.717,1.144,5.191,4.044,5.191
			c2.839,0,4.041-1.475,4.041-5.191v-10.55c2.406-2.946,5.576-5.246,7.224-5.246c1.254,0,1.415,0.49,1.415,4.151v7.439
			c0,3.604,0.222,5.789,0.652,6.882c0.66,1.643,2.031,2.515,3.938,2.515c2.403,0,3.944-1.475,3.944-3.821
			C454.155,39.056,454.155,38.842,454.097,38.676z"/>
	</g>
	<polygon fill="#FFD100" points="44.759,80.227 80.493,44.496 80.493,80.227 	"/>
	<polygon fill="#BC6124" points="63.007,21.785 80.493,4.302 80.493,39.27 	"/>
	<polygon fill="#FF5000" points="3.035,4.302 40.232,41.503 3.035,78.697 	"/>
	<polygon fill="#EB008B" points="4.567,2.775 78.961,2.771 41.762,39.973 	"/>
	
		<rect x="48.808" y="28.565" transform="matrix(-0.7072 0.7071 -0.7071 -0.7072 134.7561 27.5781)" fill="#3FAE2A" width="25.719" height="26.261"/>
	<polygon fill="#CF0A2C" points="4.565,80.226 22.117,62.677 59.246,62.677 41.698,80.226 	"/>
	<polygon fill="#00ADEE" points="50.096,52.905 48.622,52.905 50.123,51.4 49.048,50.325 46.469,52.905 44.998,52.905 48.314,49.59 
		47.234,48.513 42.845,52.905 41.373,52.905 46.5,47.776 45.423,46.7 39.219,52.905 37.749,52.905 44.689,45.964 43.612,44.889 
		35.596,52.905 34.123,52.905 42.875,44.151 41.775,43.052 24.292,60.539 59.257,60.533 50.859,52.137 	"/>
</g>
</svg>
